<mxfile host="65bd71144e">
    <diagram id="Ou49OkTdiXGq6IwavFj1" name="Page-1">
        <mxGraphModel dx="1055" dy="787" grid="1" gridSize="10" guides="1" tooltips="1" connect="1" arrows="1" fold="1" page="1" pageScale="1" pageWidth="827" pageHeight="1169" math="0" shadow="0">
            <root>
                <mxCell id="0"/>
                <mxCell id="1" parent="0"/>
                <mxCell id="2" value="" style="shape=umlLifeline;participant=umlActor;perimeter=lifelinePerimeter;whiteSpace=wrap;html=1;container=1;collapsible=0;recursiveResize=0;verticalAlign=top;spacingTop=36;outlineConnect=0;" vertex="1" parent="1">
                    <mxGeometry x="187.5" y="170" width="20" height="330" as="geometry"/>
                </mxCell>
                <mxCell id="3" value="System" style="shape=umlLifeline;perimeter=lifelinePerimeter;whiteSpace=wrap;html=1;container=1;collapsible=0;recursiveResize=0;outlineConnect=0;" vertex="1" parent="1">
                    <mxGeometry x="480" y="180" width="100" height="320" as="geometry"/>
                </mxCell>
                <mxCell id="4" value="Confirmation création trick" style="html=1;verticalAlign=bottom;endArrow=open;dashed=1;endSize=8;rounded=0;labelBackgroundColor=#F4F1DE;strokeColor=#FFFFFF;fontColor=#393C56;" edge="1" parent="3" target="2">
                    <mxGeometry relative="1" as="geometry">
                        <mxPoint x="50" y="180" as="sourcePoint"/>
                        <mxPoint x="-30" y="180" as="targetPoint"/>
                    </mxGeometry>
                </mxCell>
                <mxCell id="5" value="" style="line;strokeWidth=1;fillColor=none;align=left;verticalAlign=middle;spacingTop=-1;spacingLeft=3;spacingRight=3;rotatable=0;labelPosition=right;points=[];portConstraint=eastwest;strokeColor=#FFFFFF;labelBackgroundColor=#F4F1DE;fontColor=#393C56;" vertex="1" parent="3">
                    <mxGeometry x="-300" y="198.5" width="370" height="8" as="geometry"/>
                </mxCell>
                <mxCell id="6" value="[Erreur création trick]" style="text;align=center;fontStyle=1;verticalAlign=middle;spacingLeft=3;spacingRight=3;strokeColor=none;rotatable=0;points=[[0,0.5],[1,0.5]];portConstraint=eastwest;fontColor=#393C56;" vertex="1" parent="3">
                    <mxGeometry x="-156.25" y="198.5" width="80" height="26" as="geometry"/>
                </mxCell>
                <mxCell id="7" value="[Tant qu'il y a une erreur]" style="text;align=center;fontStyle=1;verticalAlign=middle;spacingLeft=3;spacingRight=3;strokeColor=none;rotatable=0;points=[[0,0.5],[1,0.5]];portConstraint=eastwest;fontColor=#393C56;" vertex="1" parent="3">
                    <mxGeometry x="-155" y="224.5" width="80" height="26" as="geometry"/>
                </mxCell>
                <mxCell id="8" value="Renvoie un message d'erreur" style="html=1;verticalAlign=bottom;endArrow=open;dashed=1;endSize=8;rounded=0;labelBackgroundColor=#F4F1DE;strokeColor=#FFFFFF;fontColor=#393C56;" edge="1" parent="3" target="2">
                    <mxGeometry relative="1" as="geometry">
                        <mxPoint x="50" y="280" as="sourcePoint"/>
                        <mxPoint x="-30" y="280" as="targetPoint"/>
                    </mxGeometry>
                </mxCell>
                <mxCell id="9" value="Utilisateur" style="shape=umlActor;verticalLabelPosition=bottom;verticalAlign=top;html=1;" vertex="1" parent="1">
                    <mxGeometry x="190" y="500" width="17.5" height="40" as="geometry"/>
                </mxCell>
                <mxCell id="10" value="Utilisateur" style="text;html=1;align=center;verticalAlign=middle;resizable=0;points=[];autosize=1;" vertex="1" parent="1">
                    <mxGeometry x="160" y="140" width="80" height="30" as="geometry"/>
                </mxCell>
                <mxCell id="11" value="ref" style="shape=umlFrame;whiteSpace=wrap;html=1;" vertex="1" parent="1">
                    <mxGeometry x="190" y="225" width="350" height="40" as="geometry"/>
                </mxCell>
                <mxCell id="12" value="Authentification" style="text;align=center;fontStyle=1;verticalAlign=middle;spacingLeft=3;spacingRight=3;rotatable=0;points=[[0,0.5],[1,0.5]];portConstraint=eastwest;" vertex="1" parent="1">
                    <mxGeometry x="325" y="232" width="80" height="26" as="geometry"/>
                </mxCell>
                <mxCell id="13" value="[Validation création trick]" style="text;align=center;fontStyle=1;verticalAlign=middle;spacingLeft=3;spacingRight=3;rotatable=0;points=[[0,0.5],[1,0.5]];portConstraint=eastwest;" vertex="1" parent="1">
                    <mxGeometry x="325" y="310" width="80" height="26" as="geometry"/>
                </mxCell>
                <mxCell id="14" value="Remplir et soumettre le trick" style="html=1;verticalAlign=bottom;endArrow=block;rounded=0;labelBackgroundColor=#F4F1DE;fontColor=#393C56;" edge="1" parent="1">
                    <mxGeometry width="80" relative="1" as="geometry">
                        <mxPoint x="200.25" y="300" as="sourcePoint"/>
                        <mxPoint x="529.75" y="300" as="targetPoint"/>
                    </mxGeometry>
                </mxCell>
                <mxCell id="15" value="System" style="html=1;" vertex="1" parent="1">
                    <mxGeometry x="480" y="500" width="100" height="40" as="geometry"/>
                </mxCell>
                <mxCell id="16" value="loop" style="shape=umlFrame;whiteSpace=wrap;html=1;" vertex="1" parent="1">
                    <mxGeometry x="190" y="410" width="350" height="70" as="geometry"/>
                </mxCell>
                <mxCell id="17" value="alt" style="shape=umlFrame;whiteSpace=wrap;html=1;strokeColor=default;" vertex="1" parent="1">
                    <mxGeometry x="180" y="310" width="370" height="180" as="geometry"/>
                </mxCell>
            </root>
        </mxGraphModel>
    </diagram>
</mxfile>